<svg xmlns="http://www.w3.org/2000/svg" xmlns:xlink="http://www.w3.org/1999/xlink" fill="none"
  version="1.1" width="60" height="44" viewBox="0 0 60 44" class=""
  data-src="/deep-table-materials/1-0-0/deep-table/icon.svg?h=1729761660557">
  <g style="mix-blend-mode:passthrough">
    <rect x="0" y="0" width="60" height="44" rx="2" fill="#FAFAFA" fill-opacity="1"></rect>
    <rect x="0.5" y="0.5" width="59" height="43" rx="1.5" fill-opacity="0" stroke-opacity="1"
      stroke="#ECECEC" fill="none" stroke-width="1"></rect>
    <g style="mix-blend-mode:passthrough">
      <rect x="3.5" y="3.5" width="53" height="37" rx="0" fill="#FAFAFA" fill-opacity="1"></rect>
      <g style="mix-blend-mode:passthrough">
        <g style="mix-blend-mode:passthrough">
          <g style="mix-blend-mode:passthrough">
            <rect x="6" y="5.509479999542236" width="40" height="26" rx="4" fill="#FFFFFF"
              fill-opacity="1"></rect>
            <rect x="6.5" y="6.009479999542236" width="39" height="25" rx="3.5" fill-opacity="0"
              stroke-opacity="1" stroke="#BFBFBF" fill="none" stroke-width="1"></rect>
          </g>
          <g style="mix-blend-mode:passthrough">
            <rect x="10" y="9.509479999542236" width="32" height="18" rx="2" fill="#EFEFEF"
              fill-opacity="1"></rect>
          </g>
          <g style="mix-blend-mode:passthrough">
            <g style="mix-blend-mode:passthrough">
              <rect x="14" y="12.509479999542236" width="40" height="26" rx="4" fill="#FFFFFF"
                fill-opacity="1"></rect>
              <rect x="14.5" y="13.009479999542236" width="39" height="25" rx="3.5" fill-opacity="0"
                stroke-opacity="1" stroke="#BFBFBF" fill="none" stroke-width="1"></rect>
            </g>
            <g style="mix-blend-mode:passthrough">
              <path
                d="M17.5,13.509479999542236C16.11929,13.509479999542236,15,14.628769999542236,15,16.009479999542236L15,18.509479999542236L20,18.509479999542236L20,21.509479999542236L15,21.509479999542236L15,22.509479999542236L20,22.509479999542236L20,25.509479999542236L15,25.509479999542236L15,26.509479999542236L20,26.509479999542236L20,29.509479999542236L15,29.509479999542236L15,30.509479999542236L20,30.509479999542236L20,33.509479999542236L15,33.509479999542236L15,34.509479999542236L20,34.509479999542236L20,37.509479999542236L21,37.509479999542236L21,34.509479999542236L27,34.509479999542236L27,37.509479999542236L28,37.509479999542236L28,34.509479999542236L34,34.509479999542236L34,37.509479999542236L35,37.509479999542236L35,34.509479999542236L41,34.509479999542236L41,37.509479999542236L42,37.509479999542236L42,34.509479999542236L48,34.509479999542236L48,37.509479999542236L49,37.509479999542236L49,34.509479999542236L53,34.509479999542236L53,33.509479999542236L49,33.509479999542236L49,30.509479999542236L53,30.509479999542236L53,29.509479999542236L49,29.509479999542236L49,26.509479999542236L53,26.509479999542236L53,25.509479999542236L49,25.509479999542236L49,22.509479999542236L53,22.509479999542236L53,21.509479999542236L49,21.509479999542236L49,18.509479999542236L53,18.509479999542236L53,16.009479999542236C53,14.628769999542236,51.8807,13.509479999542236,50.5,13.509479999542236L17.5,13.509479999542236ZM48,21.509479999542236L48,18.509479999542236L42,18.509479999542236L42,21.509479999542236L48,21.509479999542236ZM41,21.509479999542236L41,18.509479999542236L35,18.509479999542236L35,21.509479999542236L41,21.509479999542236ZM35,22.509479999542236L41,22.509479999542236L41,25.509479999542236L35,25.509479999542236L35,22.509479999542236ZM34,21.509479999542236L34,18.509479999542236L28,18.509479999542236L28,21.509479999542236L34,21.509479999542236ZM28,22.509479999542236L34,22.509479999542236L34,25.509479999542236L28,25.509479999542236L28,22.509479999542236ZM27,21.509479999542236L27,18.509479999542236L21,18.509479999542236L21,21.509479999542236L27,21.509479999542236ZM21,22.509479999542236L27,22.509479999542236L27,25.509479999542236L21,25.509479999542236L21,22.509479999542236ZM21,26.509479999542236L21,29.509479999542236L27,29.509479999542236L27,26.509479999542236L21,26.509479999542236ZM28,26.509479999542236L28,29.509479999542236L34,29.509479999542236L34,26.509479999542236L28,26.509479999542236ZM35,26.509479999542236L35,29.509479999542236L41,29.509479999542236L41,26.509479999542236L35,26.509479999542236ZM42,26.509479999542236L42,29.509479999542236L48,29.509479999542236L48,26.509479999542236L42,26.509479999542236ZM48,25.509479999542236L48,22.509479999542236L42,22.509479999542236L42,25.509479999542236L48,25.509479999542236ZM48,30.509479999542236L42,30.509479999542236L42,33.509479999542236L48,33.509479999542236L48,30.509479999542236ZM41,33.509479999542236L41,30.509479999542236L35,30.509479999542236L35,33.509479999542236L41,33.509479999542236ZM34,33.509479999542236L34,30.509479999542236L28,30.509479999542236L28,33.509479999542236L34,33.509479999542236ZM27,33.509479999542236L27,30.509479999542236L21,30.509479999542236L21,33.509479999542236L27,33.509479999542236Z"
                fill-rule="evenodd" fill="#DDDFFF" fill-opacity="1"></path>
            </g>
          </g>
        </g>
        <g style="mix-blend-mode:passthrough"
          transform="matrix(-0.6560590267181396,-0.7547096014022827,-0.7547096014022827,0.6560590267181396,83.9488326757567,38.25768807586144)">
          <path
            d="M48.6118025,12.678405925800732C48.4230025,12.678487957000732,48.2532825,12.752548482000732,48.1073025,12.898495582000733C47.4520925,13.553884582000732,45.4068375,15.412618582000732,45.2505685,15.554528582000732C45.2361105,15.567138582000732,45.2222065,15.580368582000732,45.2088965,15.594178582000733C45.0187615,15.791188582000732,44.9140625,16.05208858200073,44.9140625,16.328878582000733C44.9140625,16.563528582000732,44.9920742,16.793588582000734,45.1337425,16.976758582000734C45.1545115,17.003618582000733,45.1772905,17.028858582000733,45.2018825,17.052268582000732C45.2237985,17.07311858200073,47.4005625,19.14574858200073,48.1011425,19.84659858200073C48.2502425,19.995758582000732,48.4223525,20.071408582000732,48.612632500000004,20.071408582000732C48.9231725,20.071408582000732,49.1937425,19.859968582000732,49.2705825,19.557208582000733C49.2906725,19.477998582000733,49.2930025,19.41150858200073,49.2930025,19.368118582000733L49.2930025,19.34547858200073C49.2928925,19.091648582000733,49.292632499999996,18.336288582000734,49.2931125,18.236188582000732C49.2999325,18.12643858200073,49.3948525,18.030708582000734,49.4990125,18.02995858200073C49.5027725,18.029928582000732,49.5065225,18.029878582000734,49.510262499999996,18.029798582000733C51.216322500000004,18.071458582000734,52.6237025,18.626118582000732,53.2646525,19.160148582000733C53.4412625,19.307298582000733,53.6206725,19.338168582000733,53.7400825,19.338168582000733C53.9793725,19.338168582000733,54.1989225,19.217558582000734,54.3273225,19.015538582000733C54.4587525,18.808808582000733,54.4743225,18.539488582000732,54.3679725,18.312678582000732C53.932922500000004,17.384988582000734,53.3851425,16.60503858200073,52.7398325,15.994518582000733C52.2818525,15.561228582000732,51.7725325,15.214808582000732,51.2259825,14.964908582000731C50.6796025,14.715078582000732,50.0888525,14.558358582000732,49.4701625,14.499158582000732C49.3761925,14.489208582000732,49.2994125,14.399828582000733,49.2932025,14.294408582000733C49.2928625,14.215088582000732,49.2929425,13.702658582000733,49.2931125,13.384079582000732C49.2931225,13.367534582000733,49.2925225,13.350993582000733,49.2913225,13.334491582000732C49.2883125,13.281103582000732,49.2803525,13.230927582000731,49.2671625,13.182228582000732C49.1868525,12.885575582000733,48.9174625,12.678378582000732,48.6121025,12.678378582000732L48.6118025,12.678392253900732L48.6118025,12.678405925800732Z"
            fill-rule="evenodd" fill="#8C8C8C" fill-opacity="1"></path>
        </g>
        <g style="mix-blend-mode:passthrough"
          transform="matrix(-0.6560590267181396,-0.7547096014022827,-0.7547096014022827,0.6560590267181396,82.33010261185365,37.51999026456622)">
          <path
            d="M43.966796875,15.591034919891356C43.966796875,15.678224919891358,43.994919875,15.761834919891356,44.046134775,15.828034919891358C44.046134775,15.828034919891358,46.242676875,17.919104919891357,46.957316875000004,18.634024919891356C46.975966875,18.65271491989136,46.987216875,18.662054919891357,46.993816875,18.662054919891357C47.000816875,18.662054919891357,47.002646874999996,18.651564919891356,47.002646874999996,18.630564919891356L47.002626875,18.555344919891358C47.002506875,18.21795491989136,47.002256875,17.492564919891358,47.002896875,17.480354919891358C47.019476875,17.00802491989136,47.409566875,16.623974919891356,47.875436875,16.619894919891358C49.584446875,16.655554919891358,51.222266875,17.19540491989136,52.075676875,17.90639491989136C52.094956875,17.922474919891357,52.109996875,17.928844919891358,52.121246875,17.928844919891358C52.149916875,17.928844919891358,52.154006875,17.887474919891357,52.141126875,17.86000491989136C51.741796875,17.008504919891358,51.243706875,16.297284919891357,50.659476875,15.744544919891357C49.847136875000004,14.976004919891357,48.879556875,14.533544919891357,47.783556875,14.429494919891358L47.780866875,14.429214919891358C47.352186875,14.383934919891358,47.018236875,14.016604919891357,47.002936875,13.574118919891358C47.002276875,13.560788919891358,47.002686875,12.645962819891357,47.002276875,12.645935419891357C47.002276875,12.621722579891358,46.999546875,12.612124919891357,46.993246875,12.612124919891357C46.987046875,12.612124919891357,46.977356875,12.621531169891357,46.963426875,12.635435419891357C46.265936875,13.333083919891358,44.073737875,15.322424919891358,44.073737875,15.322424919891358C44.004572275,15.393874919891358,43.966796875,15.488904919891358,43.966796875,15.591034919891356Z"
            fill="#FFFFFF" fill-opacity="1"></path>
        </g>
      </g>
    </g>
  </g>
</svg>
